<?xml version="1.0" encoding="utf-8"?>
<!-- Generator: Adobe Illustrator 24.0.1, SVG Export Plug-In . SVG Version: 6.00 Build 0)  -->
<svg version="1.1" id="Calque_1" xmlns="http://www.w3.org/2000/svg" xmlns:xlink="http://www.w3.org/1999/xlink" x="0px" y="0px"
	 viewBox="0 0 235.4 220" style="enable-background:new 0 0 235.4 220;" xml:space="preserve">
<style type="text/css">
	.st0{fill:#0033CC;}
	.st1{fill:#FF6600;}
</style>
<title>logo-folhomee</title>
<g id="Calque_2_1_">
	<g id="Calque_1-2">
		<path class="st0" d="M233.9,45.5L219,29.1c-1.9-2.1-5.2-1.7-7.1,0.1l-15.2,14.7c-1.1-4.2-1.9-11.8-5.1-15c-3-3-10.1-3.5-13.9-4.5
			l-35.1-9.5L87.9,0.2c-2.8-0.7-5.6,1.1-6.3,3.9c-0.4,1.7,0.1,3.5,1.3,4.8c29.8,30.1,59.5,60.2,89.4,90.4l-22.6,22.2
			c-4.6,4.5,2.6,11.5,7.2,7c7.5-7.3,15-14.7,22.5-22.1c1.6,1.6,3.2,3.2,4.8,4.8L101.4,193c0.6-7.8,1-15.9-0.8-22.4
			c-0.8-3-4.8-5.8-6.9-7.9c-6.2-6.3-12.5-12.6-18.7-18.9c-7.6-7.7-15.9-19.8-25.3-25.3c-3.9-2.3-11.5-1.1-15.8-1.3l-9.2-0.4
			l76.1-75.3c4.8-4.7-2.6-12-7.3-7.3L9,117.6c-3.3,3.3-0.7,8.7,3.7,8.9l32.2,1.5l0.1,0.1l5.4,5.4l17.4,17.5l22.6,22.9
			c0.1,0.6,0.1,1.3,0.1,1.9c0,4,0,7.9-0.1,11.9c0,6.2,0,12.3-0.1,18.5c0.1,2.9,2.5,5.2,5.3,5.1c1.3,0,2.6-0.5,3.5-1.5l96-95
			c2-2,2-5.3,0-7.3c-2.8-2.8-5.6-5.7-8.4-8.5l12-11.8c4.5,15.4,9.1,30.8,13.6,46.2c1.9,6.4,11.9,3.7,10-2.8l-15.1-51l-0.2-0.6
			l26.9-26.4C235.8,50.6,235.8,47.4,233.9,45.5z M44.1,127.3C43.6,127,43.5,126.8,44.1,127.3z M90.2,173.1
			C90.1,172.8,90.1,172.8,90.2,173.1z M183.1,35.1C183,34.9,183,34.9,183.1,35.1z M103.7,15.2l80.1,21.6c0.1,0.4,0.2,0.8,0.4,1.3
			c1.1,3.6,2.2,7.3,3.2,10.9c0.3,1,0.6,2,0.9,3L178,61.9c-4.7,4.5,2.5,11.5,7.2,7l6.3-6.1l4,13.5l-15.9,15.6L103.7,15.2z
			 M199.9,54.7l15.4-14.8l8.1,9l-19.6,19.2C202.5,63.6,201.2,59.2,199.9,54.7z"/>
		<path class="st1" d="M60.5,159c-8.6-8.5-20.6-10.8-29.8-6.6l0,0c0,0-12.6,3.4-21.5,29.9l15.4-3.6c0,0-22.9,27.6-24.6,41.3
			c13.8-1.8,41.1-24.9,41.1-24.9l-3.5,15.4c26.4-9.2,29.6-21.8,29.6-21.8l0,0C71.4,179.6,69,167.5,60.5,159z M53.9,178.6
			c-3.8,3.9-22.3,8.8-22.3,8.8s4.3-18.6,8.1-22.5c3.8-3.9,10-4,13.9-0.2C57.6,168.5,57.7,174.7,53.9,178.6L53.9,178.6L53.9,178.6z"
			/>
		<path class="st1" d="M107,112.5c-6.7-6.8-17.7-6.9-24.6-0.1s-6.9,17.7-0.1,24.6c3.2,3.3,7.7,5.1,12.3,5.2h0.1
			c9.6,0,17.4-7.8,17.4-17.4C112,120.1,110.2,115.7,107,112.5z M94.7,133.8c-5,0-9.1-4.1-9-9.1c0-5,4.1-9.1,9.1-9
			c5,0,9.1,4.1,9.1,9.1C103.8,129.7,99.7,133.8,94.7,133.8C94.7,133.8,94.7,133.8,94.7,133.8z"/>
	</g>
</g>
</svg>
